<svg version="1.0" xmlns="http://www.w3.org/2000/svg" viewBox="0 0 3640 3640" aria-hidden="true" data-custom-class="no-empty" data-custom-style="no-empty" data-custom-id="no-empty" preserveAspectRatio="xMidYMid meet">
    <g id="layer101" fill="#0080b2" stroke="none">
        <path d="M2958 1348 l-156 -202 69 -55 c89 -70 141 -147 147 -217 11 -127 -66 -244 -181 -278 -67 -19 -79 -20 -139 -2 -66 21 -67 21 -228 151 -505 408 -832 666 -840 663 -11 -4 -310 -378 -310 -388 0 -9 943 -765 1025 -822 119 -84 245 -120 415 -121 156 0 305 41 418 116 145 96 269 258 320 417 19 60 39 203 36 255 -8 119 -39 244 -82 327 -19 36 -96 145 -129 183 -10 11 -54 49 -98 84 -44 36 -87 70 -96 78 -14 12 -35 -11 -171 -189z"/>
    </g>
    <g id="layer102" fill="#03b8ab" stroke="none">
        <path d="M671 1839 c-227 -280 -432 -541 -455 -579 -115 -186 -141 -441 -67 -658 115 -333 451 -554 806 -529 112 8 193 30 300 82 116 56 190 117 293 240 66 80 80 102 70 112 -7 7 -101 80 -208 163 l-195 151 -40 -48 c-22 -26 -61 -69 -86 -94 -136 -136 -365 -86 -434 94 -22 59 -17 148 12 204 12 23 205 267 428 543 224 276 405 503 403 504 -2 1 -91 71 -198 156 -107 84 -200 157 -206 161 -6 5 -163 -181 -423 -502z"/>
    </g>
    <g id="layer103" fill="#ea6675" stroke="none">
        <path d="M741 3559 c-118 -23 -249 -84 -345 -162 -327 -262 -385 -737 -132 -1074 43 -57 94 -105 207 -196 l46 -37 153 196 c84 108 153 202 154 209 0 7 -30 39 -69 71 -90 76 -125 140 -125 230 0 187 197 311 365 230 28 -14 270 -200 540 -415 269 -215 493 -390 497 -389 4 2 78 90 164 197 109 135 154 198 148 207 -15 22 -965 774 -1034 819 -84 55 -166 89 -262 109 -82 17 -234 20 -307 5z"/>
    </g>
    <g id="layer104" fill="#ffa73d" stroke="none">
        <path d="M2605 3556 c-191 -44 -333 -137 -477 -314 -51 -62 -58 -76 -47 -87 8 -7 99 -79 203 -160 l189 -147 26 34 c99 127 165 170 264 171 113 0 207 -68 243 -176 18 -55 15 -131 -8 -182 -7 -16 -192 -254 -411 -529 -327 -409 -396 -501 -385 -511 49 -45 373 -298 383 -299 13 -1 750 913 823 1020 84 124 125 262 125 424 0 339 -204 620 -530 733 -75 25 -105 30 -213 33 -83 3 -145 -1 -185 -10z"/>
    </g>
</svg>
